# xmcd
#
# Track frame offsets:
# 150
# 17264
# 37208
# 55164
# 72293
# 88350
# 106964
# 122721
# 140666
# 159173
# 175582
# 193812
# 211819
# 227754
# 243107
# 262452
# 279053
# 291902
#
# Disc length: 4102 seconds
#
# Revision: 0
# Processed by: cddbd v1.4b42PL1 Copyright (c) Steve Scherf et al.
# Submitted via: Audion 2.5.0 (http://www.panic.com/audion/)
#
DISCID=04100412
DTITLE=Yuki - Yuki collection
DYEAR=1900
DGENRE=
TTITLE0=Chocolate boy
TTITLE1=Beloved by you
TTITLE2=I need happiness
TTITLE3=Ti-amo
TTITLE4=My Din Dom
TTITLE5=I don't need
TTITLE6=Na na na
TTITLE7=Swear
TTITLE8=Wave
TTITLE9=Call me
TTITLE10=I can't cry
TTITLE11=Angel
TTITLE12=Give me five
TTITLE13=Dash forward
TTITLE14=5,6,7,8, Going
TTITLE15=Calculta
TTITLE16=Can't wait
TTITLE17=Flying
EXTD=
EXTT0=
EXTT1=
EXTT2=
EXTT3=
EXTT4=
EXTT5=
EXTT6=
EXTT7=
EXTT8=
EXTT9=
EXTT10=
EXTT11=
EXTT12=
EXTT13=
EXTT14=
EXTT15=
EXTT16=
EXTT17=
PLAYORDER=
